<svg width="110" height="62" viewBox="0 0 110 62" fill="none" xmlns="http://www.w3.org/2000/svg">
<g clip-path="url(#clip0_2456_3210)">
<path d="M29.335 49.901L25.662 44.8447C25.642 44.8167 25.6153 44.794 25.5843 44.7785C25.5532 44.7631 25.5188 44.7554 25.4841 44.7562L22.3223 44.7768C22.2936 44.7768 22.2651 44.7824 22.2385 44.7933C22.212 44.8042 22.1879 44.8201 22.1676 44.8403C22.1474 44.8604 22.1314 44.8843 22.1205 44.9105C22.1096 44.9368 22.1042 44.9649 22.1044 44.9932L22.1348 49.4649C22.1357 49.564 22.1167 49.6622 22.0789 49.754C22.0412 49.8457 21.9854 49.9292 21.9148 49.9997C21.8442 50.0702 21.7602 50.1262 21.6676 50.1646C21.575 50.203 21.4757 50.223 21.3752 50.2234H20.4025C20.1316 50.225 19.8711 50.1207 19.6782 49.9331C19.4853 49.7456 19.3758 49.4903 19.3737 49.2232L19.2871 36.2964C19.2857 36.0777 19.3279 35.8608 19.4114 35.6582C19.4949 35.4556 19.6181 35.2712 19.7739 35.1155C19.9297 34.9598 20.1151 34.8359 20.3195 34.7509C20.5238 34.6659 20.7432 34.6213 20.965 34.6199L26.3318 34.5851C27.1631 34.5698 27.9917 34.6812 28.7885 34.9154C29.4678 35.1132 30.1002 35.4425 30.649 35.884C31.1577 36.305 31.5603 36.8367 31.8253 37.4372C32.3285 38.6512 32.3813 40.0014 31.9743 41.25C31.8 41.7458 31.5391 42.2079 31.2035 42.6152C30.8703 43.0154 30.471 43.3572 30.0224 43.6265C29.6341 43.8612 29.2188 44.0495 28.7853 44.1874C28.7535 44.1983 28.7248 44.2163 28.7013 44.24C28.6777 44.2636 28.6601 44.2924 28.6497 44.3239C28.6393 44.3554 28.6364 44.3889 28.6413 44.4216C28.6462 44.4544 28.6587 44.4857 28.6779 44.5129L31.7948 48.7618C31.891 48.8933 31.9487 49.0484 31.9614 49.2101C31.9741 49.3718 31.9415 49.5339 31.867 49.6785C31.7925 49.8231 31.6791 49.9447 31.5391 50.0299C31.3992 50.1152 31.2382 50.1608 31.0737 50.1617L29.8782 50.1696C29.7725 50.1709 29.668 50.1472 29.5735 50.1005C29.4789 50.0537 29.3972 49.9853 29.335 49.901ZM28.5449 37.709C27.9659 37.2708 27.155 37.0559 26.1123 37.0643L22.2678 37.0864C22.2392 37.0866 22.2109 37.0924 22.1846 37.1034C22.1582 37.1144 22.1343 37.1304 22.1142 37.1505C22.0941 37.1706 22.0782 37.1944 22.0675 37.2205C22.0567 37.2467 22.0513 37.2747 22.0515 37.3029L22.0835 42.1348C22.0838 42.1631 22.0896 42.191 22.1007 42.217C22.1119 42.2429 22.1281 42.2665 22.1485 42.2863C22.1689 42.3061 22.193 42.3218 22.2196 42.3324C22.2461 42.343 22.2745 42.3484 22.3031 42.3482L26.17 42.3229C27.1667 42.3166 27.9589 42.0727 28.5465 41.5913C28.8336 41.3577 29.0618 41.0616 29.2131 40.7263C29.3644 40.3909 29.4346 40.0255 29.4183 39.6588C29.4129 38.795 29.1218 38.1451 28.5449 37.709Z" fill="#1C518E"/>
<path d="M41.7895 49.6956V49.2374C41.7861 49.1962 41.7711 49.1567 41.7462 49.1234C41.7213 49.0901 41.6875 49.0644 41.6486 49.0489C41.6096 49.0335 41.5671 49.0291 41.5258 49.0361C41.4845 49.0432 41.4459 49.0615 41.4145 49.0889C41.0444 49.4039 40.6338 49.6695 40.1934 49.8789C39.4541 50.2149 38.6468 50.3803 37.8329 50.3624C37.2689 50.3687 36.7068 50.2969 36.1631 50.1491C35.6653 50.0176 35.196 49.7975 34.7785 49.4997C34.3819 49.2135 34.0537 48.8451 33.817 48.4205C33.5667 47.9608 33.4393 47.4458 33.4468 46.9241V46.8831C33.4301 46.3298 33.5541 45.7811 33.8074 45.2872C34.0501 44.8325 34.4016 44.4431 34.8314 44.1526C35.3093 43.8352 35.8413 43.605 36.4018 43.4732C37.0499 43.3154 37.715 43.2358 38.3826 43.2362C39.015 43.2249 39.6473 43.2635 40.2735 43.3515C40.6881 43.4179 41.0908 43.5016 41.4818 43.6028C41.5141 43.613 41.5482 43.6158 41.5817 43.6109C41.6152 43.606 41.6471 43.5937 41.6749 43.5747C41.7028 43.5558 41.7259 43.5308 41.7424 43.5017C41.7589 43.4726 41.7685 43.4402 41.7703 43.4068C41.7703 42.6263 41.5075 42.0327 40.9819 41.6261C40.4562 41.2195 39.7084 41.0188 38.7383 41.0241C38.1149 41.0195 37.4931 41.0874 36.8858 41.2263C36.4916 41.3222 36.0936 41.4407 35.6919 41.5818C35.5759 41.6239 35.4479 41.6203 35.3345 41.5718C35.2211 41.5232 35.131 41.4334 35.083 41.3211L34.9227 40.885C34.8622 40.7175 34.8373 40.5396 34.8495 40.3622C34.8618 40.1848 34.9109 40.0118 34.9939 39.8539C35.0769 39.6961 35.1919 39.5568 35.3319 39.4447C35.4718 39.3325 35.6336 39.25 35.8073 39.2022C36.0541 39.1264 36.3025 39.0584 36.5525 38.9968C37.396 38.8069 38.2593 38.7157 39.1245 38.725C40.9461 38.7124 42.3007 39.1179 43.1885 39.9417C44.0763 40.7654 44.5245 41.9284 44.533 43.4305L44.5747 49.5155C44.5697 49.6721 44.5019 49.8204 44.3863 49.9279C44.2707 50.0354 44.1166 50.0933 43.9577 50.0891L42.2462 50.1001C42.1313 50.1062 42.0186 50.0669 41.933 49.9911C41.8473 49.9152 41.7957 49.809 41.7895 49.6956ZM41.8328 45.698C41.8314 45.5892 41.7938 45.4839 41.7258 45.3982C41.6577 45.3125 41.563 45.2513 41.4562 45.224C40.6639 45.0065 39.8444 44.9001 39.022 44.9079C38.1406 44.9143 37.4536 45.0723 36.9611 45.382C36.7283 45.5211 36.5375 45.7192 36.4087 45.9557C36.2799 46.1922 36.2178 46.4584 36.2288 46.7266V46.7693C36.2216 47.0166 36.2821 47.2613 36.4039 47.4776C36.5257 47.6939 36.7044 47.8739 36.9211 47.9986C37.4316 48.299 38.0191 48.4482 38.6133 48.4284C39.0471 48.4286 39.4786 48.3685 39.8953 48.2498C40.2629 48.146 40.6101 47.982 40.9226 47.7648C41.2043 47.5698 41.4368 47.3135 41.602 47.0158C41.7636 46.7182 41.8453 46.3847 41.8392 46.0472L41.8328 45.698Z" fill="#1C518E"/>
<path d="M49.6228 46.3619C49.6228 46.8833 49.7537 47.2588 50.0154 47.4885C50.2734 47.7192 50.6356 47.8314 51.1036 47.8282C51.337 47.827 51.5699 47.8043 51.799 47.7602C51.9192 47.735 52.0436 47.7364 52.1632 47.7642C52.2828 47.792 52.3947 47.8456 52.4908 47.9212C52.5868 47.9967 52.6647 48.0923 52.7189 48.2011C52.773 48.3099 52.802 48.4291 52.8038 48.5503V49.1097C52.8051 49.2721 52.7574 49.4313 52.6666 49.567C52.5759 49.7026 52.4462 49.8085 52.2942 49.8713C52.102 49.9518 51.9044 50.0194 51.7029 50.0735C51.26 50.1848 50.8042 50.2379 50.3472 50.2315C49.8793 50.2385 49.4127 50.181 48.961 50.0609C48.552 49.9537 48.1726 49.7578 47.8504 49.4873C47.5227 49.2003 47.2731 48.8368 47.1245 48.4302C46.9401 47.9024 46.8516 47.3466 46.8633 46.7885L46.8232 40.7841C46.823 40.7559 46.8172 40.728 46.806 40.702C46.7949 40.676 46.7786 40.6524 46.7582 40.6326C46.7379 40.6128 46.7137 40.5972 46.6872 40.5866C46.6607 40.5759 46.6323 40.5706 46.6037 40.5708H46.203C46.0854 40.5716 45.9687 40.5496 45.8597 40.506C45.7507 40.4624 45.6515 40.398 45.5677 40.3166C45.4839 40.2351 45.4172 40.1382 45.3715 40.0314C45.3257 39.9245 45.3017 39.8098 45.3008 39.6939V39.1645C45.2998 39.0485 45.322 38.9333 45.3661 38.8258C45.4103 38.7182 45.4755 38.6203 45.5582 38.5376C45.6408 38.455 45.7392 38.3892 45.8476 38.3442C45.9561 38.2991 46.0725 38.2755 46.1902 38.2749H46.5908C46.6488 38.2745 46.7042 38.2515 46.7451 38.211C46.7859 38.1704 46.8088 38.1156 46.8088 38.0585L46.7928 36.1513C46.7915 36.0071 46.8191 35.8642 46.8739 35.7305C46.9287 35.5969 47.0097 35.4752 47.1123 35.3725C47.2148 35.2698 47.3369 35.188 47.4715 35.1318C47.6062 35.0757 47.7507 35.0462 47.8969 35.0452H48.4337C48.5799 35.044 48.7249 35.0711 48.8605 35.1252C48.996 35.1792 49.1194 35.2591 49.2235 35.3602C49.3277 35.4613 49.4107 35.5817 49.4676 35.7145C49.5246 35.8472 49.5545 35.9897 49.5555 36.1339L49.5683 38.0569C49.5692 38.1137 49.5927 38.168 49.6338 38.2079C49.6748 38.2478 49.7302 38.2702 49.7879 38.2702L51.8856 38.256C52.0037 38.2556 52.1207 38.2781 52.23 38.3224C52.3392 38.3667 52.4385 38.4318 52.5222 38.514C52.6059 38.5962 52.6723 38.6939 52.7176 38.8015C52.7629 38.909 52.7862 39.0244 52.7862 39.1408V39.6701C52.787 39.7861 52.7647 39.9012 52.7205 40.0086C52.6762 40.1161 52.6109 40.214 52.5284 40.2966C52.4458 40.3792 52.3475 40.4449 52.2391 40.4901C52.1308 40.5353 52.0144 40.5589 51.8968 40.5597L49.7991 40.574C49.7704 40.574 49.742 40.5796 49.7156 40.5905C49.6891 40.6014 49.6651 40.6174 49.645 40.6376C49.6248 40.6577 49.609 40.6816 49.5983 40.7078C49.5876 40.7341 49.5823 40.7622 49.5827 40.7904L49.6228 46.3619Z" fill="#1C518E"/>
<path d="M57.9023 47.2829C58.6567 47.8043 59.5633 48.0684 60.484 48.0351C61.1712 48.0489 61.8541 47.9259 62.4919 47.6732C63.0904 47.3909 63.6504 47.0352 64.1585 46.6146L65.6617 47.7522C65.706 47.7827 65.7428 47.8226 65.7693 47.8691C65.7958 47.9155 65.8113 47.9672 65.8147 48.0204C65.818 48.0735 65.8092 48.1268 65.7888 48.1761C65.7685 48.2254 65.7371 48.2696 65.697 48.3053C65.1024 48.8501 64.4221 49.2963 63.6826 49.6262C62.783 50.0339 61.7067 50.2414 60.4535 50.2488C59.5198 50.2625 58.5907 50.1176 57.7068 49.8206C56.8936 49.5511 56.1395 49.1324 55.4841 48.5865C54.8335 48.0429 54.3122 47.3647 53.9574 46.6C53.6026 45.8354 53.423 45.0031 53.4313 44.1623C53.4196 43.3518 53.5767 42.5475 53.8929 41.7993C54.209 41.0511 54.6775 40.3748 55.2694 39.8122C55.8751 39.2402 56.5845 38.7857 57.3606 38.4723C58.2102 38.1313 59.1196 37.9584 60.0369 37.9635C61.0107 37.9377 61.9798 38.1059 62.8861 38.4581C63.6469 38.7567 64.3334 39.2136 64.8987 39.7977C65.464 40.3818 65.8948 41.0794 66.1617 41.8427C66.4435 42.6223 66.5887 43.4436 66.5912 44.2713C66.5912 44.3898 66.5912 44.5083 66.58 44.6284C66.5648 44.7377 66.5087 44.8374 66.4227 44.9079C66.3367 44.9784 66.227 45.0145 66.1152 45.0092L57.5754 45.0661C57.0145 45.0661 56.6427 45.5638 56.8526 46.0141C57.0861 46.519 57.4476 46.956 57.9023 47.2829ZM62.6522 43.249C63.1554 43.249 63.4983 42.8049 63.3124 42.4004L63.1425 42.0291C62.9752 41.6617 62.7368 41.33 62.4406 41.0526C62.1357 40.7728 61.7802 40.5519 61.3926 40.4016C60.9527 40.2349 60.4839 40.155 60.0128 40.1662C59.0513 40.1725 58.2586 40.4638 57.6347 41.04C57.2077 41.435 56.8863 41.9278 56.6988 42.4747C56.5578 42.8792 56.9167 43.2853 57.4055 43.2821L62.6522 43.249Z" fill="#1C518E"/>
<path d="M78.9728 53.169C84.4698 53.169 88.926 48.7751 88.926 43.355C88.926 37.9349 84.4698 33.541 78.9728 33.541C73.4758 33.541 69.0195 37.9349 69.0195 43.355C69.0195 48.7751 73.4758 53.169 78.9728 53.169Z" fill="#1C518E"/>
<path d="M75.9575 47.1471C75.0713 47.1471 74.3357 46.9685 73.7636 46.4787C73.1915 45.9889 72.9031 45.3299 72.8967 44.5004L72.8662 39.9861C72.8649 39.7822 72.9457 39.5863 73.0908 39.4411C73.2359 39.2959 73.4335 39.2135 73.6402 39.2118C73.8469 39.2106 74.0457 39.2902 74.1929 39.4333C74.3401 39.5764 74.4238 39.7712 74.4255 39.975L74.4543 44.3661C74.4543 44.7769 74.5793 45.2225 74.8197 45.4595C74.9639 45.6148 75.1382 45.74 75.3322 45.8279C75.5262 45.9158 75.7361 45.9646 75.9495 45.9715C76.1613 45.9626 76.3691 45.9114 76.5603 45.8209C76.7515 45.7305 76.922 45.6027 77.0616 45.4453C77.2988 45.2051 77.4142 44.758 77.4126 44.3471L77.3821 39.956C77.3813 39.7525 77.4622 39.5569 77.6073 39.4121C77.7524 39.2673 77.9497 39.185 78.1561 39.1834H78.1674C78.2698 39.1825 78.3713 39.2016 78.4663 39.2396C78.5612 39.2775 78.6476 39.3335 78.7205 39.4044C78.7935 39.4753 78.8515 39.5596 78.8913 39.6527C78.9311 39.7457 78.952 39.8456 78.9526 39.9466L78.983 44.4609C78.983 45.291 78.7031 45.9541 78.1433 46.4502C77.5808 46.948 76.8565 47.1407 75.9575 47.1471Z" fill="#F1F2F2"/>
<path d="M83.6096 41.2325C83.9798 41.2267 84.347 41.2991 84.6865 41.445C85.0259 41.5908 85.3298 41.8066 85.5775 42.0779C86.105 42.6533 86.3995 43.3999 86.4048 44.1755C86.4101 44.9512 86.1259 45.7017 85.6064 46.2841C85.3616 46.5595 85.0596 46.7798 84.7209 46.93C84.3822 47.0802 84.0147 47.1569 83.6433 47.1547C82.8474 47.1547 82.2315 46.8861 81.7956 46.3489L81.81 48.591C81.8106 48.678 81.7939 48.7642 81.7607 48.8447C81.7276 48.9253 81.6787 48.9986 81.6167 49.0606C81.5548 49.1225 81.4812 49.1718 81.4 49.2056C81.3187 49.2395 81.2315 49.2572 81.1434 49.2578H81.0184C80.9303 49.2584 80.8429 49.2419 80.7613 49.2092C80.6797 49.1765 80.6054 49.1282 80.5427 49.0672C80.4801 49.0061 80.4302 48.9335 80.3961 48.8534C80.3619 48.7733 80.3441 48.6874 80.3437 48.6005L80.2988 42.0731C80.298 41.8978 80.3677 41.7293 80.4927 41.6046C80.6176 41.4799 80.7877 41.4091 80.9655 41.4079H81.0905C81.2684 41.407 81.4395 41.4757 81.5662 41.5989C81.693 41.7221 81.765 41.8898 81.7667 42.0652C82.201 41.5106 82.8148 41.2388 83.6096 41.2325ZM82.2379 45.3408C82.5451 45.6229 82.9502 45.7784 83.37 45.7755C83.7899 45.7725 84.1927 45.6113 84.4958 45.325C84.7828 45.0125 84.9406 44.6053 84.9379 44.1837C84.9352 43.7622 84.7723 43.3569 84.4814 43.048C84.3323 42.9032 84.1547 42.79 83.9596 42.7153C83.7645 42.6406 83.556 42.6059 83.3468 42.6135C83.1385 42.6082 82.9312 42.6455 82.7382 42.723C82.5451 42.8005 82.3704 42.9166 82.2251 43.0638C81.9418 43.3781 81.7865 43.7846 81.7892 44.205C81.7918 44.6254 81.9522 45.03 82.2395 45.3408H82.2379Z" fill="#F1F2F2"/>
<path d="M69.7739 12.8209L64.5914 17.8092L62.0594 14.3741C61.3011 13.3429 60.1764 12.6313 58.9097 12.3812C57.643 12.1311 56.3272 12.3609 55.2246 13.0247C54.8334 13.1764 54.4639 13.3778 54.1253 13.6236C53.0256 14.4166 52.2887 15.6064 52.0756 16.9332C51.8624 18.2601 52.1902 19.6162 52.9875 20.7055L58.2214 27.816L54.1221 25.6908L45.8082 29.9949C45.6215 30.0918 45.4162 30.1493 45.2057 30.1635C44.9951 30.1778 44.7839 30.1486 44.5854 30.0778C44.3869 30.0071 44.2056 29.8962 44.0531 29.7525C43.9005 29.6087 43.78 29.4351 43.6993 29.2428C43.5904 28.9864 43.5565 28.7051 43.6016 28.4306L45.1881 19.3087L38.4575 12.8414C38.2544 12.6461 38.1109 12.3987 38.0431 12.1272C37.9753 11.8556 37.9859 11.5708 38.0738 11.3049C38.1617 11.039 38.3233 10.8027 38.5404 10.6227C38.7574 10.4427 39.0213 10.3262 39.302 10.2864L48.5966 8.95594L52.752 0.652534C52.8774 0.40198 53.0715 0.191032 53.3122 0.0435346C53.5529 -0.103963 53.8307 -0.182129 54.1141 -0.182129C54.3975 -0.182129 54.6753 -0.103963 54.916 0.0435346C55.1567 0.191032 55.3508 0.40198 55.4762 0.652534L59.6316 8.95594L68.9262 10.2864C69.2045 10.3277 69.4656 10.4444 69.6806 10.6235C69.8955 10.8025 70.0558 11.037 70.1435 11.3006C70.2313 11.5642 70.243 11.8467 70.1775 12.1165C70.1119 12.3864 69.9717 12.6329 69.7723 12.8288L69.7739 12.8209Z" fill="url(#paint0_linear_2456_3210)"/>
<path d="M61.295 17.5172C61.2957 18.2851 61.0263 19.0295 60.5326 19.6234C60.0389 20.2174 59.3516 20.6241 58.5879 20.7742C57.8241 20.9244 57.0311 20.8087 56.3442 20.4469C55.6572 20.0851 55.1188 19.4996 54.8207 18.7902C54.5226 18.0807 54.4833 17.2913 54.7095 16.5565C54.9357 15.8217 55.4133 15.187 56.061 14.7605C56.7087 14.3341 57.4863 14.1424 58.2614 14.2181C59.0364 14.2937 59.7608 14.6321 60.3111 15.1755C60.9404 15.7969 61.2943 16.639 61.295 17.5172Z" fill="url(#paint1_linear_2456_3210)"/>
<path d="M59.8464 28.6458L58.183 27.7847L52.9492 20.6979C52.1519 19.6086 51.824 18.2525 52.0372 16.9256C52.2504 15.5988 52.9872 14.409 54.087 13.6159C54.4262 13.3713 54.7956 13.17 55.1863 13.0171C55.0677 13.0882 54.9523 13.1625 54.8369 13.2446C53.7372 14.0377 53.0003 15.2275 52.7872 16.5543C52.574 17.8812 52.9018 19.2373 53.6991 20.3266L59.8464 28.6458Z" fill="#E6E7E8"/>
</g>
<defs>
<linearGradient id="paint0_linear_2456_3210" x1="38.153" y1="-2.94219" x2="57.8928" y2="22.1334" gradientUnits="userSpaceOnUse">
<stop stop-color="#FFD54C"/>
<stop offset="1" stop-color="#F8951D"/>
</linearGradient>
<linearGradient id="paint1_linear_2456_3210" x1="25.0043" y1="-13.4448" x2="64.5277" y2="24.7826" gradientUnits="userSpaceOnUse">
<stop stop-color="#FFD54C"/>
<stop offset="1" stop-color="#F8951D"/>
</linearGradient>
<clipPath id="clip0_2456_3210">
<rect width="109.426" height="61.6544" fill="white"/>
</clipPath>
</defs>
</svg>
